<mxfile host="65bd71144e" scale="3" border="0">
    <diagram id="Hx1Scun1XmcxFN0eKz50" name="第 1 页">
        <mxGraphModel dx="703" dy="667" grid="1" gridSize="10" guides="1" tooltips="1" connect="1" arrows="1" fold="1" page="1" pageScale="1" pageWidth="827" pageHeight="1169" math="0" shadow="0">
            <root>
                <mxCell id="0"/>
                <mxCell id="1" parent="0"/>
                <mxCell id="18" value="" style="rounded=0;whiteSpace=wrap;html=1;fillColor=#fff2cc;strokeColor=#d6b656;" vertex="1" parent="1">
                    <mxGeometry x="240" y="350" width="540" height="110" as="geometry"/>
                </mxCell>
                <mxCell id="3" value="" style="rounded=0;whiteSpace=wrap;html=1;fillColor=#fff2cc;strokeColor=#d6b656;" vertex="1" parent="1">
                    <mxGeometry x="240" y="160" width="540" height="60" as="geometry"/>
                </mxCell>
                <mxCell id="2" value="参数设置界面" style="rounded=1;whiteSpace=wrap;html=1;" vertex="1" parent="1">
                    <mxGeometry x="400" y="170" width="100" height="40" as="geometry"/>
                </mxCell>
                <mxCell id="4" value="开始界面" style="rounded=1;whiteSpace=wrap;html=1;" vertex="1" parent="1">
                    <mxGeometry x="310" y="170" width="80" height="40" as="geometry"/>
                </mxCell>
                <mxCell id="5" value="FRET图像处理界面" style="rounded=1;whiteSpace=wrap;html=1;" vertex="1" parent="1">
                    <mxGeometry x="510" y="170" width="130" height="40" as="geometry"/>
                </mxCell>
                <mxCell id="6" value="结果可视化界面" style="rounded=1;whiteSpace=wrap;html=1;" vertex="1" parent="1">
                    <mxGeometry x="650" y="170" width="120" height="40" as="geometry"/>
                </mxCell>
                <mxCell id="7" value="" style="rounded=0;whiteSpace=wrap;html=1;fillColor=#fff2cc;strokeColor=#d6b656;" vertex="1" parent="1">
                    <mxGeometry x="240" y="230" width="540" height="110" as="geometry"/>
                </mxCell>
                <mxCell id="8" value="数据检验业务" style="rounded=1;whiteSpace=wrap;html=1;" vertex="1" parent="1">
                    <mxGeometry x="460" y="240" width="90" height="40" as="geometry"/>
                </mxCell>
                <mxCell id="9" value="参数读/写业务" style="rounded=1;whiteSpace=wrap;html=1;" vertex="1" parent="1">
                    <mxGeometry x="310" y="290" width="110" height="40" as="geometry"/>
                </mxCell>
                <mxCell id="10" value="自动ROI选取业务（线程分离）" style="rounded=1;whiteSpace=wrap;html=1;" vertex="1" parent="1">
                    <mxGeometry x="430" y="290" width="200" height="40" as="geometry"/>
                </mxCell>
                <mxCell id="11" value="数据导入/导出业务" style="rounded=1;whiteSpace=wrap;html=1;" vertex="1" parent="1">
                    <mxGeometry x="640" y="290" width="130" height="40" as="geometry"/>
                </mxCell>
                <mxCell id="12" value="FRET双杂交分析业务" style="rounded=1;whiteSpace=wrap;html=1;" vertex="1" parent="1">
                    <mxGeometry x="310" y="240" width="140" height="40" as="geometry"/>
                </mxCell>
                <mxCell id="13" value="可视化绘图业务" style="rounded=1;whiteSpace=wrap;html=1;" vertex="1" parent="1">
                    <mxGeometry x="660" y="240" width="110" height="40" as="geometry"/>
                </mxCell>
                <mxCell id="14" value="数据筛选业务" style="rounded=1;whiteSpace=wrap;html=1;" vertex="1" parent="1">
                    <mxGeometry x="560" y="240" width="90" height="40" as="geometry"/>
                </mxCell>
                <mxCell id="15" value="FRET双杂交求解器&amp;nbsp;&lt;span style=&quot;background-color: transparent;&quot;&gt;FretThaSolver&lt;/span&gt;" style="rounded=1;whiteSpace=wrap;html=1;fontStyle=0" vertex="1" parent="1">
                    <mxGeometry x="440" y="360" width="200" height="40" as="geometry"/>
                </mxCell>
                <mxCell id="16" value="表现层" style="text;html=1;align=center;verticalAlign=middle;whiteSpace=wrap;rounded=0;" vertex="1" parent="1">
                    <mxGeometry x="240" y="175" width="70" height="30" as="geometry"/>
                </mxCell>
                <mxCell id="17" value="业务层" style="text;html=1;align=center;verticalAlign=middle;whiteSpace=wrap;rounded=0;" vertex="1" parent="1">
                    <mxGeometry x="240" y="270" width="70" height="30" as="geometry"/>
                </mxCell>
                <mxCell id="19" value="FRET图像接口" style="rounded=1;whiteSpace=wrap;html=1;" vertex="1" parent="1">
                    <mxGeometry x="650" y="360" width="120" height="40" as="geometry"/>
                </mxCell>
                <mxCell id="20" value="FRET数据接口" style="rounded=1;whiteSpace=wrap;html=1;" vertex="1" parent="1">
                    <mxGeometry x="470" y="410" width="120" height="40" as="geometry"/>
                </mxCell>
                <mxCell id="22" value="运行时参数接口" style="rounded=1;whiteSpace=wrap;html=1;" vertex="1" parent="1">
                    <mxGeometry x="310" y="360" width="120" height="40" as="geometry"/>
                </mxCell>
                <mxCell id="23" value="数据访问层" style="text;html=1;align=center;verticalAlign=middle;whiteSpace=wrap;rounded=0;" vertex="1" parent="1">
                    <mxGeometry x="240" y="390" width="70" height="30" as="geometry"/>
                </mxCell>
                <mxCell id="24" value="" style="rounded=0;whiteSpace=wrap;html=1;fillColor=#fff2cc;strokeColor=#d6b656;" vertex="1" parent="1">
                    <mxGeometry x="240" y="470" width="540" height="60" as="geometry"/>
                </mxCell>
                <mxCell id="25" value="FretImage数据模型" style="rounded=1;whiteSpace=wrap;html=1;" vertex="1" parent="1">
                    <mxGeometry x="410" y="480" width="120" height="40" as="geometry"/>
                </mxCell>
                <mxCell id="26" value="运行时参数" style="rounded=1;whiteSpace=wrap;html=1;" vertex="1" parent="1">
                    <mxGeometry x="310" y="480" width="90" height="40" as="geometry"/>
                </mxCell>
                <mxCell id="27" value="FretDataPiece&lt;div&gt;数据模型&lt;/div&gt;" style="rounded=1;whiteSpace=wrap;html=1;" vertex="1" parent="1">
                    <mxGeometry x="540" y="480" width="100" height="40" as="geometry"/>
                </mxCell>
                <mxCell id="28" value="FretRecord数据模型" style="rounded=1;whiteSpace=wrap;html=1;" vertex="1" parent="1">
                    <mxGeometry x="650" y="480" width="120" height="40" as="geometry"/>
                </mxCell>
                <mxCell id="29" value="数据层" style="text;html=1;align=center;verticalAlign=middle;whiteSpace=wrap;rounded=0;" vertex="1" parent="1">
                    <mxGeometry x="240" y="485" width="70" height="30" as="geometry"/>
                </mxCell>
                <mxCell id="31" value="FRET定量计算器 FretCalculator" style="rounded=1;whiteSpace=wrap;html=1;" vertex="1" parent="1">
                    <mxGeometry x="310" y="410" width="150" height="40" as="geometry"/>
                </mxCell>
                <mxCell id="32" value="FRET图像处理器 FretImageProcessor" style="rounded=1;whiteSpace=wrap;html=1;" vertex="1" parent="1">
                    <mxGeometry x="600" y="410" width="170" height="40" as="geometry"/>
                </mxCell>
            </root>
        </mxGraphModel>
    </diagram>
</mxfile>